<svg xmlns="http://www.w3.org/2000/svg" viewBox="0 0 420 180">
  <rect width="420" height="180" fill="#fbfaf7"/>
  <g transform="translate(34,34)">
    <rect x="0" y="22" width="18" height="18" transform="rotate(45 9 31)" fill="#55b7d9"/>
    <rect x="18" y="11" width="18" height="18" transform="rotate(45 27 20)" fill="#7cc7d8"/>
    <rect x="18" y="33" width="18" height="18" transform="rotate(45 27 42)" fill="#4e9f68"/>
    <rect x="36" y="0" width="18" height="18" transform="rotate(45 45 9)" fill="#8bcf7a"/>
    <rect x="36" y="22" width="18" height="18" transform="rotate(45 45 31)" fill="#a7d36a"/>
    <rect x="36" y="44" width="18" height="18" transform="rotate(45 45 53)" fill="#6fb56f"/>
    <rect x="54" y="11" width="18" height="18" transform="rotate(45 63 20)" fill="#d8c85f"/>
    <rect x="54" y="33" width="18" height="18" transform="rotate(45 63 42)" fill="#d99a42"/>
    <rect x="72" y="22" width="18" height="18" transform="rotate(45 81 31)" fill="#8f9c9b"/>
  </g>
  <text x="160" y="82" fill="#737373" font-family="Arial, Helvetica, sans-serif" font-size="38" font-weight="300" letter-spacing="2">MAP</text>
  <text x="250" y="82" fill="#7ec26c" font-family="Arial, Helvetica, sans-serif" font-size="38" font-weight="400" letter-spacing="2">PULSE</text>
  <text x="160" y="112" fill="#6b6f6a" font-family="Arial, Helvetica, sans-serif" font-size="16" font-weight="400" letter-spacing="3">FOREST CARBON AND MINING</text>
  <text x="160" y="134" fill="#6b6f6a" font-family="Arial, Helvetica, sans-serif" font-size="16" font-weight="400" letter-spacing="3">SPATIAL INTELLIGENCE</text>
</svg>
