<svg xmlns="http://www.w3.org/2000/svg" viewBox="0 0 500 180">
  <rect width="500" height="180" fill="#f7f5ef"/>
  <g transform="translate(28,30)">
    <path d="M18 36L40 16L60 28L54 54L30 62Z" fill="#89a91f"/>
    <path d="M60 28L82 16L102 28L96 50L74 60L54 54Z" fill="#a8bc53"/>
    <path d="M30 62L54 54L74 60L68 88L42 96L22 80Z" fill="#4a7b4d"/>
    <path d="M74 60L96 50L116 64L108 92L82 100L68 88Z" fill="#d2a343"/>
    <path d="M102 28L122 18L140 36L136 62L116 64L96 50Z" fill="#8aa3a2"/>
    <path d="M42 96L68 88L82 100L72 122L46 126L28 112Z" fill="#6d8b57"/>
  </g>
  <text x="180" y="76" fill="#29462d" font-family="Arial, Helvetica, sans-serif" font-size="34" font-weight="700" letter-spacing="1.4">ECO PULSE</text>
  <line x1="180" y1="88" x2="390" y2="88" stroke="#c9b06a" stroke-width="2"/>
  <text x="180" y="123" fill="#666b63" font-family="Arial, Helvetica, sans-serif" font-size="16" font-weight="400" letter-spacing="2.2">FOREST CARBON MONITORING</text>
</svg>
